{"title":"The.Passion.Of.The.Christ[2004]720p.XviD.AC3.Cody'sBRrip","uid":5311031,"size":3023567620,"categoryP":"video","categoryS":"hd___movies","magnet":"?xt=urn:btih:d6767f3d61257f1f812cb56d852d41ffb8851d4e&amp;dn=The.Passion.Of.The.Christ%5B2004%5D720p.XviD.AC3.Cody%5C%27sBRrip&amp;tr=udp%3A%2F%2Ftracker.openbittorrent.com%3A80&amp;tr=udp%3A%2F%2Fopen.demonii.com%3A1337&amp;tr=udp%3A%2F%2Ftracker.coppersurfer.tk%3A6969&amp;tr=udp%3A%2F%2Fexodus.desync.com%3A6969","seeders":0,"leechers":1,"uploader":"CODYBOSS1969","files":4,"time":1264562702,"description":"General\nComplete name : The.Passion.Of.The.Christ[2004]XviD.Ac3[EngHardSub]Cody'sBRrip.avi\nFormat : AVI\nFormat/Info : Audio Video Interleave\nFormat profile : OpenDML\nFile size : 2.82 GiB\nDuration : 2h 6mn\nOverall bit rate : 3 186 Kbps\nWriting application : VirtualDubMod 1.5.10.2 (build 2540/release)\nWriting library : VirtualDubMod build 2540/release\n\nVideo:\n\nFormat : MPEG-4 Visual\nFormat profile : Streaming Video@L1\nFormat settings, BVOP : Yes\nFormat settings, QPel : No\nFormat settings, GMC : 3 warppoints\nFormat settings, Matrix : Default\nMuxing mode : Packet Bitstream\nCodec ID : XVID\nCodec ID/Hint : XviD\nDuration : 2h 6mn\nBit rate : 2 535 Kbps\nWidth : 1 280 pixels\nHeight : 528 pixels\nDisplay aspect ratio : 2.424\nFrame rate : 23.976 fps\nResolution : 24 bits\nColorimetry : 4:2:0\nScan type : Progressive\nBits/(Pixel*Frame) : 0.156\nStream size : 2.24 GiB (80%)\nWriting library : XviD 1.2.0.dev47 (UTC 2006-11-01)\n\n\n\nAudio: [Hebrew/Latin]\n\n\nFormat : AC-3\nFormat/Info : Audio Coding 3\nCodec ID : 2000\nBit rate mode : Constant\nBit rate : 640 Kbps\nChannel(s) : 6 channels\nChannel positions : Front: L C R, Rear: L R, LFE\nSampling rate : 48.0 KHz\nStream size : 579 MiB (20%)\nAlignment : Split accross interleaves\nInterleave, duration : 42 ms (1.00 video frame)\nInterleave, preload duration : 500 ms\n\n\nEnglish Hard Subbed !!\n &lt;a href=&quot;\nhttp://www.imdb.com/title/tt0335345/&quot; rel=&quot;nofollow&quot; target=&quot;_NEW&quot;&gt;\nhttp://www.imdb.com/title/tt0335345/&lt;/a&gt;\n\n\nRomanian Subtitles included in the torrent.\n\n\nDON'T FORGET TO SEED !\n\nHIT AND RUN IS NOT AN OPTION BECAUSE IT IS ... A TORRENT !","torrent":{"xt":"urn:btih:d6767f3d61257f1f812cb56d852d41ffb8851d4e","amp;dn":"The.Passion.Of.The.Christ%5B2004%5D720p.XviD.AC3.Cody%5C%27sBRrip","amp;tr":["udp%3A%2F%2Ftracker.openbittorrent.com%3A80","udp%3A%2F%2Fopen.demonii.com%3A1337","udp%3A%2F%2Ftracker.coppersurfer.tk%3A6969","udp%3A%2F%2Fexodus.desync.com%3A6969"],"infoHash":"d6767f3d61257f1f812cb56d852d41ffb8851d4e","infoHashBuffer":{"type":"Buffer","data":[214,118,127,61,97,37,127,31,129,44,181,109,133,45,65,255,184,133,29,78]},"announce":[],"urlList":[]}}